<svg width="33" height="33" viewBox="0 0 33 33" fill="none" xmlns="http://www.w3.org/2000/svg">
<path d="M30.3333 18.6667H18.6667V30.3333C18.6667 30.9522 18.4208 31.5457 17.9832 31.9832C17.5457 32.4208 16.9522 32.6667 16.3333 32.6667C15.7145 32.6667 15.121 32.4208 14.6834 31.9832C14.2458 31.5457 14 30.9522 14 30.3333V18.6667H2.33333C1.71449 18.6667 1.121 18.4208 0.683418 17.9832C0.245833 17.5457 0 16.9522 0 16.3333C0 15.7145 0.245833 15.121 0.683418 14.6834C1.121 14.2458 1.71449 14 2.33333 14H14V2.33333C14 1.71449 14.2458 1.121 14.6834 0.683417C15.121 0.245832 15.7145 0 16.3333 0C16.9522 0 17.5457 0.245832 17.9832 0.683417C18.4208 1.121 18.6667 1.71449 18.6667 2.33333V14H30.3333C30.9522 14 31.5457 14.2458 31.9833 14.6834C32.4208 15.121 32.6667 15.7145 32.6667 16.3333C32.6667 16.9522 32.4208 17.5457 31.9833 17.9832C31.5457 18.4208 30.9522 18.6667 30.3333 18.6667Z" fill="white"/>
</svg>
