<svg width="364" height="150" viewBox="0 0 364 150" fill="none" xmlns="http://www.w3.org/2000/svg">
<path d="M0.5 25.5889C0.624319 25.7476 0.761685 25.9199 0.915039 26.1035C1.88393 27.2637 3.45086 28.9075 5.86035 30.8721C10.6793 34.8013 18.8657 40.0135 32.374 45.2168C59.3864 55.6218 107.704 66 193 66C262.241 66 305.038 58.8718 330.541 51.7314C343.293 48.1611 351.723 44.5873 356.974 41.8984C359.599 40.554 361.43 39.4304 362.608 38.6396C362.939 38.4177 363.217 38.2198 363.448 38.0527L359.503 119.927C359.501 119.935 359.499 119.944 359.496 119.955C359.483 120.002 359.459 120.078 359.422 120.181C359.347 120.386 359.213 120.698 358.986 121.103C358.533 121.912 357.704 123.093 356.212 124.52C353.225 127.374 347.581 131.212 336.984 135.004C315.785 142.591 274.854 149.966 196.006 149C105.339 147.89 56.4073 137.142 30.1621 126.702C17.0431 121.483 9.6046 116.346 5.45508 112.538C3.38062 110.634 2.12701 109.062 1.39648 107.978C1.03128 107.435 0.79616 107.014 0.654297 106.733C0.583428 106.593 0.535927 106.488 0.506836 106.42C0.504384 106.414 0.502191 106.408 0.5 106.403V25.5889Z" fill="url(#paint0_linear_247_234)" stroke="black"/>
<path d="M182 0.5C232.228 0.5 277.57 5.40791 310.344 12.1055C326.733 15.4548 339.961 19.2484 349.081 23.0908C353.644 25.0132 357.154 26.9376 359.514 28.8086C361.893 30.6953 363 32.4434 363 34C363 35.5527 361.898 37.2617 359.521 39.0791C357.162 40.8817 353.654 42.709 349.092 44.5146C339.972 48.1238 326.744 51.6061 310.353 54.6436C277.577 60.7172 232.233 65 182 65C131.781 65 86.3208 58.7195 53.4258 50.6494C36.9757 46.6137 23.6842 42.1345 14.5166 37.7783C9.93066 35.5992 6.3988 33.4611 4.02148 31.4395C1.62226 29.3992 0.5 27.5637 0.5 26C0.5 24.4579 1.59757 22.8356 3.9834 21.1699C6.35117 19.5169 9.87623 17.9027 14.4629 16.3535C23.6296 13.2575 36.9207 10.4613 53.377 8.11035C86.2826 3.40955 131.758 0.5 182 0.5Z" fill="url(#paint1_linear_247_234)" stroke="black"/>
<defs>
<linearGradient id="paint0_linear_247_234" x1="43.5" y1="24" x2="341" y2="123" gradientUnits="userSpaceOnUse">
<stop stop-color="#6E3722"/>
<stop offset="0.5" stop-color="#DAAF8A"/>
<stop offset="1" stop-color="#693825"/>
</linearGradient>
<linearGradient id="paint1_linear_247_234" x1="35" y1="16.5" x2="364" y2="54.5" gradientUnits="userSpaceOnUse">
<stop stop-color="#6D3721"/>
<stop offset="0.5" stop-color="#CDAC92"/>
<stop offset="1" stop-color="#693825"/>
</linearGradient>
</defs>
</svg>
