<svg width="397" height="249" viewBox="0 0 397 249" fill="none" xmlns="http://www.w3.org/2000/svg">
<path d="M0.522461 30.1465C0.697822 30.2892 0.901563 30.4501 1.1377 30.626C2.20922 31.4241 3.9362 32.5514 6.58203 33.8984C11.8731 36.5922 20.847 40.1671 35.623 43.7363C65.173 50.8741 117.966 58 211 58C286.525 58 332.814 51.8735 360.234 45.7383C373.945 42.6705 382.942 39.5996 388.52 37.29C391.308 36.1352 393.243 35.1704 394.484 34.4912C394.885 34.2721 395.212 34.0803 395.474 33.9238L391.001 197.962L390.999 197.984C390.997 198.006 390.993 198.041 390.986 198.088C390.974 198.181 390.952 198.324 390.916 198.512C390.844 198.888 390.716 199.448 390.492 200.163C390.044 201.594 389.211 203.65 387.678 206.115C384.612 211.044 378.731 217.628 367.473 224.121C344.943 237.115 300.896 249.738 214.894 248C115.979 246.001 63.1998 234.379 35.1689 223.285C21.1571 217.74 13.3436 212.332 9.04199 208.337C6.89161 206.34 5.61835 204.695 4.88672 203.562C4.52086 202.996 4.28999 202.557 4.15234 202.265C4.08358 202.119 4.03728 202.01 4.00977 201.939C4.00529 201.928 4.00159 201.918 3.99805 201.908L0.522461 30.1465Z" fill="url(#paint0_linear_247_240)" stroke="black"/>
<path d="M198.5 0.5C253.16 0.5 302.634 3.74481 338.435 8.98828C356.338 11.6106 370.801 14.7302 380.776 18.1846C385.767 19.9128 389.606 21.7154 392.187 23.5625C394.783 25.4209 396 27.245 396 29C396 30.755 394.783 32.5791 392.187 34.4375C389.606 36.2846 385.767 38.0872 380.776 39.8154C370.801 43.2698 356.338 46.3894 338.435 49.0117C302.634 54.2552 253.16 57.5 198.5 57.5C143.84 57.5 94.3657 54.2552 58.5654 49.0117C40.6615 46.3894 26.1992 43.2698 16.2236 39.8154C11.2327 38.0872 7.39418 36.2846 4.81348 34.4375C2.21719 32.5791 1 30.755 1 29C1 27.245 2.21719 25.4209 4.81348 23.5625C7.39418 21.7154 11.2327 19.9128 16.2236 18.1846C26.1992 14.7302 40.6615 11.6106 58.5654 8.98828C94.3657 3.74481 143.84 0.5 198.5 0.5Z" fill="url(#paint1_linear_247_240)" stroke="black"/>
<defs>
<linearGradient id="paint0_linear_247_240" x1="101" y1="84" x2="343.5" y2="200.5" gradientUnits="userSpaceOnUse">
<stop stop-color="#CD9D40"/>
<stop offset="0.5" stop-color="#CFB68A"/>
<stop offset="1" stop-color="#B28D30"/>
</linearGradient>
<linearGradient id="paint1_linear_247_240" x1="0.5" y1="29" x2="396.5" y2="29" gradientUnits="userSpaceOnUse">
<stop stop-color="#CD9E40"/>
<stop offset="0.5" stop-color="#CEB58A"/>
<stop offset="1" stop-color="#B18D30"/>
</linearGradient>
</defs>
</svg>
