<svg width="365" height="174" viewBox="0 0 365 174" fill="none" xmlns="http://www.w3.org/2000/svg">
<path d="M0.5 25.749C0.615592 25.8564 0.742771 25.9733 0.884766 26.0967C1.80424 26.8959 3.29708 28.0226 5.61328 29.3672C10.2446 32.0557 18.1759 35.6194 31.4238 39.1758C57.9173 46.2878 105.716 53.3848 191 53.3848C260.232 53.3848 303.518 48.0611 329.507 42.7305C342.502 40.0651 351.175 37.3973 356.606 35.3916C359.322 34.3887 361.229 33.5511 362.46 32.9619C362.886 32.7578 363.23 32.5805 363.5 32.4395V126.934C363.495 126.951 363.489 126.973 363.481 126.999C363.457 127.083 363.417 127.212 363.357 127.383C363.238 127.724 363.041 128.23 362.734 128.879C362.12 130.176 361.065 132.043 359.305 134.283C355.786 138.763 349.444 144.75 338.171 150.678C315.617 162.538 273.336 174.159 194.508 173C103.831 171.667 55.2579 163.543 29.3711 155.771C16.4297 151.885 9.17575 148.092 5.16895 145.293C3.16648 143.894 1.97724 142.745 1.29492 141.959C0.953947 141.566 0.738924 141.264 0.612305 141.066C0.560824 140.986 0.525027 140.922 0.5 140.877V25.749Z" fill="url(#paint0_linear_247_248)" stroke="black"/>
<path d="M182.5 0.5C232.879 0.5 278.477 3.63326 311.471 8.69531C327.971 11.2269 341.298 14.2379 350.487 17.5713C355.085 19.239 358.618 20.977 360.992 22.7568C363.378 24.5456 364.5 26.3035 364.5 28C364.5 29.6965 363.378 31.4544 360.992 33.2432C358.618 35.023 355.085 36.761 350.487 38.4287C341.298 41.7621 327.971 44.7731 311.471 47.3047C278.477 52.3667 232.879 55.5 182.5 55.5C132.121 55.5 86.5233 52.3667 53.5293 47.3047C37.0286 44.7731 23.7024 41.7621 14.5127 38.4287C9.915 36.761 6.38178 35.023 4.00781 33.2432C1.62199 31.4544 0.5 29.6965 0.5 28C0.5 26.3035 1.62199 24.5456 4.00781 22.7568C6.38178 20.977 9.915 19.239 14.5127 17.5713C23.7024 14.2379 37.0286 11.2269 53.5293 8.69531C86.5233 3.63326 132.121 0.5 182.5 0.5Z" fill="url(#paint1_linear_247_248)" stroke="black"/>
<defs>
<linearGradient id="paint0_linear_247_248" x1="47" y1="42" x2="291.5" y2="158" gradientUnits="userSpaceOnUse">
<stop stop-color="#727070"/>
<stop offset="0.5" stop-color="#A6A6A6"/>
<stop offset="1" stop-color="#848484"/>
</linearGradient>
<linearGradient id="paint1_linear_247_248" x1="79.404" y1="-11.4183" x2="314.096" y2="49.9184" gradientUnits="userSpaceOnUse">
<stop stop-color="#727070"/>
<stop offset="0.5" stop-color="#A6A6A6"/>
<stop offset="1" stop-color="#848484"/>
</linearGradient>
</defs>
</svg>
